<?xml version="1.0" encoding="utf-8"?>
<!-- Generator: Adobe Illustrator 25.0.1, SVG Export Plug-In . SVG Version: 6.00 Build 0)  -->
<svg version="1.1" id="Слой_1" xmlns="http://www.w3.org/2000/svg" xmlns:xlink="http://www.w3.org/1999/xlink" x="0px" y="0px"
	 viewBox="0 0 180 180" style="enable-background:new 0 0 180 180;" xml:space="preserve">
<style type="text/css">
	.st0{fill:#ED1E04;}
</style>
<g>
	<path class="st0" d="M116.5,78.3c6-4.2,14.9-15.4,14.9-31c0-28.4-19.5-43.5-50.5-43.5l-22.1,0l0,0l-3.3,0l-1.9,0l0,0l-3.6,0
		l-0.1,172.5l7.3,0l0,0l0.3,0l1.3,0l0,0l27.9,0c38.6,0,58.4-22.4,58.4-53.1C144.9,92.4,125.6,81.7,116.5,78.3z M58.7,25.9l22.7,0
		c14.3,0,25.3,6,25.3,21.4c0,13.3-7.6,23.2-25.3,23.2l-22.7,0L58.7,25.9z M58.6,92.6l26.8,0c20.8,0,34.6,9.1,34.6,30.5
		c0,19.8-13.6,31-34.7,31l-26.8,0L58.6,92.6z M135.5,123.1c0,25.5-15.4,44.8-49,44.8l-27.9,0l0-5.5l26.8,0c25.8,0,44-13.3,44-39.3
		c0-26.6-18.2-38.8-44.3-38.8l-26.6,0l0-5.5l24,0c22.9,0,33.4-14.3,33.4-31.5c0-21.9-16.7-29.7-34.6-29.7l-22.7,0l0-5.5l22.4,0
		c26.6,0,40.9,12.5,40.9,35.2c0,15.9-8.3,28.4-21.9,33.3C118,83.3,135.5,94.5,135.5,123.1z"/>
	<rect x="35.2" y="3.8" class="st0" width="8.9" height="172.5"/>
</g>
</svg>
