<svg width="512" height="512" viewBox="0 0 512 512" fill="none" xmlns="http://www.w3.org/2000/svg">
<rect width="512" height="512" fill="#E4E4EC"/>
<path d="M186.4 85L220 143.629H114.4C104.8 143.629 85.6 158.286 85.6 182.714C85.6 207.143 100 226.686 124 226.686H205.6C229.6 226.686 311.2 236.457 311.2 324.4C311.2 412.343 239.2 427 205.6 427H85.6L47.2 373.257H205.6C220 373.257 258.4 363.486 258.4 324.4C258.4 293.131 223.2 285.314 205.6 285.314H152.8C56.8 285.314 28 226.686 28 182.714C28 138.743 66.4 85 114.4 85H186.4Z" fill="#111112"/>
<path d="M253.6 143.629L220 85H373.6C407.2 85 474.4 104.543 474.4 182.714C474.4 253.069 421.6 280.429 392.8 280.429L484 427H416.8L296.8 226.686H373.6C402.4 226.686 416.8 202.257 416.8 182.714C416.8 163.171 397.6 143.629 373.6 143.629H253.6Z" fill="#111112"/>
</svg>
